<svg id="Vrstva_1" data-name="Vrstva 1" xmlns="http://www.w3.org/2000/svg" viewBox="0 0 108.42 44.01"><defs><style>.cls-1{fill:#f06630;fill-rule:evenodd;}.cls-2{fill:#fffffc;}.cls-3{fill:#fff;}</style></defs><title>magexo_uprav</title><path class="cls-1" d="M74.17,4.28a19.29,19.29,0,0,1,9.92,35.83H64.25A19.29,19.29,0,0,1,74.17,4.28" transform="translate(-0.99 -4.28)"/><path class="cls-2" d="M102.87,18.53a8.69,8.69,0,0,1,2.51.36,5.32,5.32,0,0,1,2.14,1.23,5.52,5.52,0,0,1,1.41,2.27,8.92,8.92,0,0,1,.49,3,10.17,10.17,0,0,1-.52,3.25,7.15,7.15,0,0,1-1.46,2.6,5.16,5.16,0,0,1-2.22,1.48,8.32,8.32,0,0,1-2.71.43,8.59,8.59,0,0,1-2-.23,5.94,5.94,0,0,1-1.81-.77,5.58,5.58,0,0,1-1.47-1.4,6.19,6.19,0,0,1-1-2A9.17,9.17,0,0,1,96,26.22a9.87,9.87,0,0,1,.83-4.09,5.55,5.55,0,0,1,2.5-2.73,7.56,7.56,0,0,1,3.57-.87m0,.77a6.13,6.13,0,0,0-3.07.81,4.76,4.76,0,0,0-2.09,2.46A9.6,9.6,0,0,0,97,26.18a8.66,8.66,0,0,0,.38,2.61,4.87,4.87,0,0,0,1.23,2.06A4.76,4.76,0,0,0,100.45,32a6.49,6.49,0,0,0,2.07.33,6.59,6.59,0,0,0,2.32-.4,4.71,4.71,0,0,0,1.91-1.35A5.89,5.89,0,0,0,108,28.28a10.65,10.65,0,0,0,.39-2.92,9.16,9.16,0,0,0-.38-2.69,4.46,4.46,0,0,0-1.18-2A4.54,4.54,0,0,0,105,19.6,7.38,7.38,0,0,0,102.84,19.3Z" transform="translate(-0.99 -4.28)"/><path class="cls-2" d="M1,32.83l.15-1.89q0-.57.07-1.14l.36-9.26c0-.67,0-1.26,0-1.73H2.67l-.15,2.92a9.34,9.34,0,0,1,.82-1.33,4.58,4.58,0,0,1,1-.93,5.14,5.14,0,0,1,1.44-.69,5.73,5.73,0,0,1,1.69-.25,5.21,5.21,0,0,1,1.43.19,4.7,4.7,0,0,1,1.16.48,3.45,3.45,0,0,1,.8.65,3,3,0,0,1,.49.75,7.14,7.14,0,0,1,.34,1.07c.18-.36.36-.67.53-.93a4.34,4.34,0,0,1,.67-.81,4.25,4.25,0,0,1,1-.73,5.6,5.6,0,0,1,1.29-.49,6.15,6.15,0,0,1,3.64.21,3.2,3.2,0,0,1,1.59,1.27A3.8,3.8,0,0,1,21,22.29q0,.68-.1,2.06t-.22,3.92c-.08,1.7-.13,3.22-.14,4.56H19.42q.13-1.71.26-4.08l.21-3.82c.06-1,.09-1.74.09-2.36a7.14,7.14,0,0,0,0-.84,2.41,2.41,0,0,0-.18-.69,2.36,2.36,0,0,0-.42-.64,2.74,2.74,0,0,0-.68-.53,3.41,3.41,0,0,0-.95-.36,5,5,0,0,0-1.18-.13,4.87,4.87,0,0,0-1.67.27,4.47,4.47,0,0,0-1.37.79,4.27,4.27,0,0,0-1,1.2,6.74,6.74,0,0,0-.64,1.92,24.08,24.08,0,0,0-.3,3.72l-.15,5.55H10.26c.09-1.27.16-2.51.21-3.72l.17-3.49c.06-1.11.09-2,.09-2.76a5,5,0,0,0-.19-1.58,2.49,2.49,0,0,0-.63-1,3,3,0,0,0-1.09-.68,4.15,4.15,0,0,0-1.45-.24,4.75,4.75,0,0,0-1.64.28A4.44,4.44,0,0,0,3.3,21.75a7.08,7.08,0,0,0-.69,2,30.56,30.56,0,0,0-.36,3.86c-.1,2-.16,3.78-.16,5.22H1M25.32,20.26a9.46,9.46,0,0,0,.14-1.05,19.38,19.38,0,0,1,2.46-.54A14.85,14.85,0,0,1,30,18.53a11.75,11.75,0,0,1,2.3.21,4.29,4.29,0,0,1,1.74.72A2.39,2.39,0,0,1,35,20.62a4.12,4.12,0,0,1,.22,1.33c0,.46,0,1.05,0,1.76S35.07,25.17,35,26s-.11,1.83-.15,3-.07,2.09-.07,2.63v1.17H33.63q.19-2.13.27-3.45c.05-.88.09-1.82.12-2.84s.08-2,.13-2.84l-.66.54a4.09,4.09,0,0,1-.5.31q-.27.14-.65.28l-.7.25-1.55.44c-.82.22-1.41.39-1.76.5a11.7,11.7,0,0,0-1.85.73,5.15,5.15,0,0,0-1.18.83,2.63,2.63,0,0,0-.61.85,2.88,2.88,0,0,0-.22,1.12A2.42,2.42,0,0,0,25,31.14a2.87,2.87,0,0,0,1.36.94,6.49,6.49,0,0,0,2,.27,9.55,9.55,0,0,0,1.12-.06c.36,0,.7-.1,1-.17s.78-.2,1.38-.4q-.12.53-.2,1.05a18.5,18.5,0,0,1-1.83.28c-.47,0-.91.06-1.33.06a12.22,12.22,0,0,1-2.16-.18,3.68,3.68,0,0,1-1.65-.71,3.33,3.33,0,0,1-1-1.22,3.47,3.47,0,0,1-.32-1.46,3.41,3.41,0,0,1,.19-1.13,3.7,3.7,0,0,1,.6-1,3.63,3.63,0,0,1,.89-.78,7,7,0,0,1,1.45-.75c.61-.24,1.27-.46,2-.66l2.29-.6A11.54,11.54,0,0,0,32.53,24a2.94,2.94,0,0,0,1.26-1,2.23,2.23,0,0,0,.45-1.28,2.09,2.09,0,0,0-.21-.91,2.29,2.29,0,0,0-.74-.82,3.26,3.26,0,0,0-1.33-.54,9,9,0,0,0-1.67-.15,13.49,13.49,0,0,0-1.91.13,12.06,12.06,0,0,0-1.5.3A14.65,14.65,0,0,0,25.32,20.26ZM39.47,37.9a24.36,24.36,0,0,0,3,.73,14.41,14.41,0,0,0,2.19.18,7.74,7.74,0,0,0,2.19-.3,5.2,5.2,0,0,0,1.58-.74,3.41,3.41,0,0,0,.9-1,5,5,0,0,0,.56-1.56,13,13,0,0,0,.23-2q.1-1.73.14-3.9c-.18.45-.34.8-.48,1a4.61,4.61,0,0,1-.56.81,4.67,4.67,0,0,1-.84.76,6,6,0,0,1-1.09.61A6.92,6.92,0,0,1,46,33a8,8,0,0,1-1.55.15,8.24,8.24,0,0,1-2.4-.33,5.1,5.1,0,0,1-2-1.12,4.91,4.91,0,0,1-1.31-2A7.62,7.62,0,0,1,38.28,27a9.82,9.82,0,0,1,.67-3.59A7.18,7.18,0,0,1,43.68,19a12.07,12.07,0,0,1,3.49-.48,27,27,0,0,1,4.61.48l-.14,1.6c0,.3-.05.7-.08,1.19l-.33,6.35L51.07,34a8.54,8.54,0,0,1-.27,1.84,4.71,4.71,0,0,1-.73,1.54,4.31,4.31,0,0,1-1.22,1.15,6.06,6.06,0,0,1-1.86.75,11.35,11.35,0,0,1-2.75.3A19.52,19.52,0,0,1,42,39.46,20.38,20.38,0,0,1,39.55,39Q39.53,38.43,39.47,37.9Zm11.2-18.23a18.69,18.69,0,0,0-2.11-.31c-.53,0-1-.06-1.4-.06a11.49,11.49,0,0,0-3,.36A6.18,6.18,0,0,0,41.71,21,6.68,6.68,0,0,0,40,23.59a8.72,8.72,0,0,0-.63,3.25,7.14,7.14,0,0,0,.58,2.91,4,4,0,0,0,1.79,2,5.53,5.53,0,0,0,2.69.66,7.49,7.49,0,0,0,1.86-.22,4.26,4.26,0,0,0,1.26-.54,5.2,5.2,0,0,0,1.13-1,6.67,6.67,0,0,0,1-1.44,7.07,7.07,0,0,0,.59-1.69,22.5,22.5,0,0,0,.33-3.09Z" transform="translate(-0.99 -4.28)"/><path class="cls-3" d="M71.12,32.83l3.15-3.93,4.49-5.83-3.7-5.69-2.35-3.52H75.8q1.11,1.87,2.54,3.92c.95,1.36,1.65,2.42,2.09,3.15l4.49-5.62.42-.56.63-.9h2.92q-1.12,1.46-3.19,4.07T81.78,23q1.12,1.79,2.56,4l3.9,5.87-1.51,0-1.59,0-.71-1.16-.7-1.1-3.62-5.43-3.34,4.21q-1.59,2-2.66,3.47l-1.47,0-1.52,0M60.4,24h8.25a8.31,8.31,0,0,0-.11-1.36,3.93,3.93,0,0,0-.36-1,2.8,2.8,0,0,0-.72-.9,3.13,3.13,0,0,0-1.08-.58A4.53,4.53,0,0,0,65,20a5.08,5.08,0,0,0-1.5.22,4.48,4.48,0,0,0-1.26.61,4.11,4.11,0,0,0-.93.91,4.65,4.65,0,0,0-.57,1A9.22,9.22,0,0,0,60.4,24Zm9.36,6.63q-.17.76-.34,1.93A18.62,18.62,0,0,1,67.1,33a15.94,15.94,0,0,1-2,.12A10.73,10.73,0,0,1,62,32.73a5.38,5.38,0,0,1-2.37-1.45,6.12,6.12,0,0,1-1.42-2.37,9.07,9.07,0,0,1-.43-2.82,9.33,9.33,0,0,1,.79-3.84A6.25,6.25,0,0,1,61,19.46a7.35,7.35,0,0,1,4-1,7.86,7.86,0,0,1,2.42.37,4.77,4.77,0,0,1,1.91,1.12,5,5,0,0,1,1.18,1.86A6.73,6.73,0,0,1,71,24.21a5.5,5.5,0,0,1-.09,1H60.29q-.06.76-.06,1.17A5.92,5.92,0,0,0,60.84,29a4.14,4.14,0,0,0,1.81,1.86,5.78,5.78,0,0,0,2.75.63A13.86,13.86,0,0,0,69.76,30.64Z" transform="translate(-0.99 -4.28)"/><path class="cls-2" d="M82.49,44.43h2.43a2.39,2.39,0,0,0,0-.36,1.05,1.05,0,0,0-.09-.26,1,1,0,0,0-.16-.23.86.86,0,0,0-.21-.16,1.07,1.07,0,0,0-.27-.1,1.45,1.45,0,0,0-.31,0,1.58,1.58,0,0,0-.36,0,1.49,1.49,0,0,0-.32.11,1.23,1.23,0,0,0-.27.18,1.13,1.13,0,0,0-.21.24,1.47,1.47,0,0,0-.12.25,3.1,3.1,0,0,0-.09.32m2.39,1.85a2.39,2.39,0,0,0,0,.26,3.69,3.69,0,0,1-.51.11,3.17,3.17,0,0,1-.46,0,2.2,2.2,0,0,1-.73-.11,1.28,1.28,0,0,1-.54-.37,1.54,1.54,0,0,1-.32-.58,2.36,2.36,0,0,1-.1-.68,2.39,2.39,0,0,1,.16-.89,1.52,1.52,0,0,1,1.48-1,1.66,1.66,0,0,1,.7.14,1,1,0,0,1,.49.46,1.58,1.58,0,0,1,.17.76q0,.08,0,.16H82.45c0,.15,0,.26,0,.34a2.07,2.07,0,0,0,.1.63,1.3,1.3,0,0,0,.29.51,1.2,1.2,0,0,0,.46.31,1.64,1.64,0,0,0,.57.1A2.85,2.85,0,0,0,84.88,46.28Zm-3.41.06a2.09,2.09,0,0,0,0,.26,4.28,4.28,0,0,1-.81.08,2.16,2.16,0,0,1-.67-.1,1.32,1.32,0,0,1-.53-.32,1.36,1.36,0,0,1-.33-.55A2.28,2.28,0,0,1,79,45a2.67,2.67,0,0,1,.17-1,1.49,1.49,0,0,1,.54-.71,1.73,1.73,0,0,1,1-.26,3,3,0,0,1,.88.13,2.25,2.25,0,0,0,0,.24,4.39,4.39,0,0,0-.56-.14,2.27,2.27,0,0,0-.37,0,1.41,1.41,0,0,0-.64.14,1.25,1.25,0,0,0-.46.39,1.61,1.61,0,0,0-.26.57,2.62,2.62,0,0,0-.08.63,2.25,2.25,0,0,0,.09.63,1.09,1.09,0,0,0,.27.48,1.27,1.27,0,0,0,.46.28,1.72,1.72,0,0,0,.58.1,2,2,0,0,0,.36,0A4.16,4.16,0,0,0,81.47,46.35Zm-6.4.27.12-2.09,0-1c0-.18,0-.3,0-.38h.27l0,.78a2.66,2.66,0,0,1,.12-.24,1.21,1.21,0,0,1,.13-.18,1.23,1.23,0,0,1,.2-.18,1.06,1.06,0,0,1,.28-.14,2,2,0,0,1,.34-.08l.34,0a2.37,2.37,0,0,1,.56.07,1,1,0,0,1,.45.22.83.83,0,0,1,.24.37,1.44,1.44,0,0,1,.07.44c0,.07,0,.18,0,.31l-.07,1.56v.56h-.27q0-.43.05-.82l0-.88q0-.49,0-.7a1.17,1.17,0,0,0-.07-.4.64.64,0,0,0-.22-.3,1,1,0,0,0-.38-.17,1.92,1.92,0,0,0-.45-.05,1.69,1.69,0,0,0-.57.09,1.18,1.18,0,0,0-.41.25,1.25,1.25,0,0,0-.29.42,1.82,1.82,0,0,0-.13.52c0,.19-.05.51-.07.94s0,.8,0,1.1h-.27Zm-3.32-2.19h2.43a2.39,2.39,0,0,0,0-.36,1.05,1.05,0,0,0-.09-.26,1,1,0,0,0-.16-.23.86.86,0,0,0-.21-.16,1.07,1.07,0,0,0-.27-.1,1.45,1.45,0,0,0-.31,0,1.58,1.58,0,0,0-.36,0,1.49,1.49,0,0,0-.32.11,1.23,1.23,0,0,0-.27.18,1.13,1.13,0,0,0-.21.24,1.47,1.47,0,0,0-.12.25A3.1,3.1,0,0,0,71.75,44.43Zm2.39,1.85a2.39,2.39,0,0,0,0,.26,3.69,3.69,0,0,1-.51.11,3.17,3.17,0,0,1-.46,0,2.2,2.2,0,0,1-.73-.11,1.28,1.28,0,0,1-.54-.37,1.54,1.54,0,0,1-.32-.58,2.37,2.37,0,0,1-.1-.68,2.39,2.39,0,0,1,.16-.89,1.52,1.52,0,0,1,1.48-1,1.66,1.66,0,0,1,.7.14,1,1,0,0,1,.49.46,1.58,1.58,0,0,1,.17.76q0,.08,0,.16H71.71c0,.15,0,.26,0,.34a2.07,2.07,0,0,0,.1.63,1.3,1.3,0,0,0,.29.51,1.2,1.2,0,0,0,.46.31,1.64,1.64,0,0,0,.57.1A2.85,2.85,0,0,0,74.14,46.28Zm-3.87.34q0-.51.09-1.79t.05-1.67h.27q0,.65-.09,1.77t0,1.68h-.27Zm.13-4.34v-.34h.35v.34H70.4ZM68,46.62q0-.72.08-1.7t0-1.45v-.31h.25l0,.65a1.82,1.82,0,0,1,.22-.35.91.91,0,0,1,.23-.2,1.1,1.1,0,0,1,.31-.12,1.57,1.57,0,0,1,.37,0,1.2,1.2,0,0,1,.28,0,1.92,1.92,0,0,0,0,.23,1.71,1.71,0,0,0-.4-.06.94.94,0,0,0-.3,0,.86.86,0,0,0-.25.13,1.08,1.08,0,0,0-.23.23,1.1,1.1,0,0,0-.16.32,1.9,1.9,0,0,0-.09.47q0,.44,0,1,0,.76,0,1.12H68ZM64.7,44.43h2.43a2.39,2.39,0,0,0,0-.36,1.05,1.05,0,0,0-.09-.26,1,1,0,0,0-.16-.23.86.86,0,0,0-.21-.16,1.07,1.07,0,0,0-.27-.1,1.45,1.45,0,0,0-.31,0,1.58,1.58,0,0,0-.36,0,1.49,1.49,0,0,0-.32.11,1.23,1.23,0,0,0-.27.18,1.13,1.13,0,0,0-.21.24,1.48,1.48,0,0,0-.12.25A3.1,3.1,0,0,0,64.7,44.43Zm2.39,1.85a2.4,2.4,0,0,0,0,.26,3.69,3.69,0,0,1-.51.11,3.17,3.17,0,0,1-.46,0,2.2,2.2,0,0,1-.73-.11,1.28,1.28,0,0,1-.54-.37,1.54,1.54,0,0,1-.32-.58,2.36,2.36,0,0,1-.1-.68,2.39,2.39,0,0,1,.16-.89,1.52,1.52,0,0,1,1.48-1,1.66,1.66,0,0,1,.7.14,1,1,0,0,1,.49.46,1.58,1.58,0,0,1,.17.76q0,.08,0,.16H64.66c0,.15,0,.26,0,.34a2.07,2.07,0,0,0,.1.63,1.3,1.3,0,0,0,.29.51,1.2,1.2,0,0,0,.46.31,1.64,1.64,0,0,0,.57.1A2.85,2.85,0,0,0,67.09,46.28ZM61,43.52q0,.29,0,.83t0,.72a2.36,2.36,0,0,0,.06.55,1.09,1.09,0,0,0,.25.47,1.18,1.18,0,0,0,.43.32,1.32,1.32,0,0,0,.52.11,1.21,1.21,0,0,0,.69-.21,1.33,1.33,0,0,0,.48-.62,2.3,2.3,0,0,0,.17-.89,1.88,1.88,0,0,0-.17-.84,1.11,1.11,0,0,0-.47-.51,1.42,1.42,0,0,0-.68-.16A3.43,3.43,0,0,0,61,43.52Zm-.44,4.62,0-.69.11-3.1,0-1a6.83,6.83,0,0,1,.78-.17,4.61,4.61,0,0,1,.65,0,2,2,0,0,1,.86.17,1.19,1.19,0,0,1,.57.58,2.1,2.1,0,0,1,.2.94,2.4,2.4,0,0,1-.21,1,1.49,1.49,0,0,1-.58.68,1.56,1.56,0,0,1-.81.22,1.82,1.82,0,0,1-.4,0,1.33,1.33,0,0,1-.36-.14,1,1,0,0,1-.28-.22,2.31,2.31,0,0,1-.27-.41l-.06,1.81v.12c0,.08,0,.19,0,.33h-.27Zm-3.38-1.52.69-.94.69-1-1-1.57h.3q.31.54.85,1.34.65-.85,1-1.34H60l-1.14,1.57L60,46.62H59.7l-.2-.35-.39-.62L58.66,45q-.62.8-1.21,1.66h-.31Zm-31.52,0,0-.47q0-.14,0-.28l.09-2.28c0-.17,0-.31,0-.43H26l0,.72a2.31,2.31,0,0,1,.2-.33,1.13,1.13,0,0,1,.25-.23,1.27,1.27,0,0,1,.36-.17,1.41,1.41,0,0,1,.42-.06,1.29,1.29,0,0,1,.35,0,1.16,1.16,0,0,1,.29.12.85.85,0,0,1,.2.16.74.74,0,0,1,.12.18,1.75,1.75,0,0,1,.08.26l.13-.23a1.07,1.07,0,0,1,.17-.2,1,1,0,0,1,.25-.18,1.38,1.38,0,0,1,.32-.12,1.51,1.51,0,0,1,.9.05.79.79,0,0,1,.39.31.94.94,0,0,1,.14.52q0,.17,0,.51t-.05,1c0,.42,0,.79,0,1.12h-.27q0-.42.06-1l.05-.94c0-.24,0-.43,0-.58a1.77,1.77,0,0,0,0-.21.6.6,0,0,0,0-.17.58.58,0,0,0-.1-.16.67.67,0,0,0-.17-.13.84.84,0,0,0-.23-.09,1.23,1.23,0,0,0-.29,0,1.2,1.2,0,0,0-.41.07,1.1,1.1,0,0,0-.34.19,1.05,1.05,0,0,0-.25.3,1.66,1.66,0,0,0-.16.47,6,6,0,0,0-.07.92l0,1.37H27.9c0-.31,0-.62.05-.92l0-.86c0-.27,0-.5,0-.68a1.24,1.24,0,0,0,0-.39.61.61,0,0,0-.16-.24.75.75,0,0,0-.27-.17,1,1,0,0,0-.36-.06,1.17,1.17,0,0,0-.4.07,1.09,1.09,0,0,0-.6.51,1.75,1.75,0,0,0-.17.49,7.54,7.54,0,0,0-.09,1c0,.51,0,.93,0,1.29h-.27Zm6-3.1a2.33,2.33,0,0,0,0-.26,4.76,4.76,0,0,1,.61-.13,3.66,3.66,0,0,1,.52,0,2.89,2.89,0,0,1,.57.05,1.06,1.06,0,0,1,.43.18.59.59,0,0,1,.22.29,1,1,0,0,1,.05.33c0,.11,0,.26,0,.43s0,.36,0,.56,0,.45,0,.75,0,.52,0,.65v.29h-.29q0-.52.07-.85c0-.22,0-.45,0-.7s0-.48,0-.7l-.16.13-.12.08-.16.07-.17.06-.38.11-.43.12a2.88,2.88,0,0,0-.46.18,1.26,1.26,0,0,0-.29.21.65.65,0,0,0-.15.21.71.71,0,0,0-.05.28.6.6,0,0,0,.13.39.71.71,0,0,0,.34.23,1.6,1.6,0,0,0,.49.07l.28,0,.25,0,.34-.1q0,.13,0,.26l-.45.07-.33,0a3,3,0,0,1-.53,0,.91.91,0,0,1-.41-.18.82.82,0,0,1-.24-.3.85.85,0,0,1-.08-.36.84.84,0,0,1,0-.28.91.91,0,0,1,.15-.26.89.89,0,0,1,.22-.19,1.72,1.72,0,0,1,.36-.19l.49-.16.57-.15a2.83,2.83,0,0,0,.42-.15.72.72,0,0,0,.31-.24.55.55,0,0,0,.11-.32.51.51,0,0,0-.05-.22.56.56,0,0,0-.18-.2.8.8,0,0,0-.33-.13,2.23,2.23,0,0,0-.41,0,3.33,3.33,0,0,0-.47,0l-.37.07Zm3.49,4.35a6,6,0,0,0,.75.18,3.56,3.56,0,0,0,.54,0,1.91,1.91,0,0,0,.54-.07,1.28,1.28,0,0,0,.39-.18.84.84,0,0,0,.22-.24,1.22,1.22,0,0,0,.14-.38,3.19,3.19,0,0,0,.06-.49q0-.43,0-1c0,.11-.08.2-.12.26a1.14,1.14,0,0,1-.14.2,1.15,1.15,0,0,1-.21.19,1.48,1.48,0,0,1-.27.15,1.71,1.71,0,0,1-.34.1,2,2,0,0,1-.38,0,2,2,0,0,1-.59-.08,1.26,1.26,0,0,1-.49-.28,1.21,1.21,0,0,1-.32-.5,1.88,1.88,0,0,1-.11-.64,2.42,2.42,0,0,1,.16-.89,1.77,1.77,0,0,1,1.17-1.1,3,3,0,0,1,.86-.12,6.64,6.64,0,0,1,1.14.12l0,.39c0,.07,0,.17,0,.29L38,45.47l0,1.44a2.1,2.1,0,0,1-.07.45,1.16,1.16,0,0,1-.18.38,1.06,1.06,0,0,1-.3.28,1.49,1.49,0,0,1-.46.19,2.8,2.8,0,0,1-.68.07,4.81,4.81,0,0,1-.54,0,5,5,0,0,1-.61-.11Q35.12,48,35.1,47.87Zm2.76-4.5a4.61,4.61,0,0,0-.52-.08H37a2.83,2.83,0,0,0-.73.09,1.52,1.52,0,0,0-.61.34,1.65,1.65,0,0,0-.43.63,2.15,2.15,0,0,0-.15.8,1.76,1.76,0,0,0,.14.72,1,1,0,0,0,.44.49,1.36,1.36,0,0,0,.66.16,1.85,1.85,0,0,0,.46-.05,1.05,1.05,0,0,0,.31-.13,1.29,1.29,0,0,0,.28-.24,1.65,1.65,0,0,0,.23-.36,1.75,1.75,0,0,0,.14-.42,5.55,5.55,0,0,0,.08-.76Zm3.7,2.91a2.4,2.4,0,0,0,0,.26,3.69,3.69,0,0,1-.51.11,3.17,3.17,0,0,1-.46,0,2.2,2.2,0,0,1-.73-.11,1.28,1.28,0,0,1-.54-.37,1.54,1.54,0,0,1-.32-.58,2.36,2.36,0,0,1-.1-.68,2.39,2.39,0,0,1,.16-.89,1.52,1.52,0,0,1,1.48-1,1.66,1.66,0,0,1,.7.14,1,1,0,0,1,.49.46,1.58,1.58,0,0,1,.17.76q0,.08,0,.16H39.13c0,.15,0,.26,0,.34a2.07,2.07,0,0,0,.1.63,1.3,1.3,0,0,0,.29.51,1.2,1.2,0,0,0,.46.31,1.64,1.64,0,0,0,.57.1A2.85,2.85,0,0,0,41.56,46.28Zm-2.39-1.85H41.6a2.39,2.39,0,0,0,0-.36,1.05,1.05,0,0,0-.09-.26,1,1,0,0,0-.16-.23.86.86,0,0,0-.21-.16,1.07,1.07,0,0,0-.27-.1,1.45,1.45,0,0,0-.31,0,1.58,1.58,0,0,0-.36,0,1.49,1.49,0,0,0-.32.11,1.23,1.23,0,0,0-.27.18,1.13,1.13,0,0,0-.21.24,1.48,1.48,0,0,0-.12.25A3.09,3.09,0,0,0,39.17,44.43Zm3.32,2.19.12-2.09,0-1c0-.18,0-.3,0-.38h.27l0,.78A2.66,2.66,0,0,1,43,43.7a1.21,1.21,0,0,1,.34-.36,1.06,1.06,0,0,1,.28-.14,2,2,0,0,1,.34-.08l.34,0a2.37,2.37,0,0,1,.56.07,1,1,0,0,1,.45.22.83.83,0,0,1,.24.37,1.44,1.44,0,0,1,.07.44c0,.07,0,.18,0,.31l-.07,1.56v.56h-.27q0-.43.05-.82l0-.88c0-.32,0-.56,0-.7a1.17,1.17,0,0,0-.07-.4.64.64,0,0,0-.22-.3,1,1,0,0,0-.38-.17,1.91,1.91,0,0,0-.45-.05,1.69,1.69,0,0,0-.57.09,1.18,1.18,0,0,0-.41.25,1.25,1.25,0,0,0-.29.42,1.82,1.82,0,0,0-.13.52c0,.19-.05.51-.07.94s0,.8,0,1.1h-.27Zm5.41-.22a1.57,1.57,0,0,0,0,.22,2.09,2.09,0,0,1-.51.07,1.26,1.26,0,0,1-.35,0,.49.49,0,0,1-.25-.15.57.57,0,0,1-.13-.25,1.33,1.33,0,0,1,0-.29s0,0,0-.09,0-.13,0-.26l.11-2.26H46.3a1.47,1.47,0,0,0,0-.19h.41c0-.14,0-.36,0-.65l.23,0q0,.55,0,.69h1a1.74,1.74,0,0,0,0,.19h-1l-.11,2.35v.14a1,1,0,0,0,.07.42.41.41,0,0,0,.19.19.58.58,0,0,0,.25.06l.2,0ZM50,43.09a2.14,2.14,0,0,1,.62.09,1.31,1.31,0,0,1,.53.3,1.36,1.36,0,0,1,.35.56,2.2,2.2,0,0,1,.12.73,2.51,2.51,0,0,1-.13.8,1.76,1.76,0,0,1-.36.64,1.27,1.27,0,0,1-.55.36,2.06,2.06,0,0,1-.67.11,2.11,2.11,0,0,1-.49-.06,1.46,1.46,0,0,1-.45-.19,1.38,1.38,0,0,1-.36-.35,1.53,1.53,0,0,1-.24-.5,2.26,2.26,0,0,1-.08-.61,2.43,2.43,0,0,1,.21-1,1.37,1.37,0,0,1,.62-.67A1.86,1.86,0,0,1,50,43.09Zm0,.19a1.51,1.51,0,0,0-.76.2,1.17,1.17,0,0,0-.51.61,2.37,2.37,0,0,0-.16.89,2.13,2.13,0,0,0,.09.64,1.2,1.2,0,0,0,.3.51,1.17,1.17,0,0,0,.45.29,1.6,1.6,0,0,0,.51.08,1.62,1.62,0,0,0,.57-.1,1.16,1.16,0,0,0,.47-.33,1.45,1.45,0,0,0,.3-.57,2.63,2.63,0,0,0,.1-.72,2.26,2.26,0,0,0-.09-.66,1.1,1.1,0,0,0-.29-.5,1.12,1.12,0,0,0-.45-.26A1.82,1.82,0,0,0,50,43.28Zm6.7,3a2.4,2.4,0,0,0,0,.26,3.69,3.69,0,0,1-.51.11,3.17,3.17,0,0,1-.46,0,2.2,2.2,0,0,1-.73-.11,1.28,1.28,0,0,1-.54-.37,1.54,1.54,0,0,1-.32-.58,2.36,2.36,0,0,1-.1-.68,2.39,2.39,0,0,1,.16-.89,1.52,1.52,0,0,1,1.48-1,1.66,1.66,0,0,1,.7.14,1,1,0,0,1,.49.46,1.58,1.58,0,0,1,.17.76q0,.08,0,.16H54.29c0,.15,0,.26,0,.34a2.07,2.07,0,0,0,.1.63,1.3,1.3,0,0,0,.29.51,1.2,1.2,0,0,0,.46.31,1.64,1.64,0,0,0,.57.1A2.85,2.85,0,0,0,56.72,46.28Zm-2.39-1.85h2.43a2.39,2.39,0,0,0,0-.36,1.05,1.05,0,0,0-.09-.26,1,1,0,0,0-.16-.23.86.86,0,0,0-.21-.16,1.07,1.07,0,0,0-.27-.1,1.45,1.45,0,0,0-.31,0,1.58,1.58,0,0,0-.36,0,1.49,1.49,0,0,0-.32.11,1.23,1.23,0,0,0-.27.18,1.13,1.13,0,0,0-.21.24,1.48,1.48,0,0,0-.12.25A3.09,3.09,0,0,0,54.33,44.43Z" transform="translate(-0.99 -4.28)"/></svg>